<mxfile host="Electron" agent="Mozilla/5.0 (Windows NT 10.0; Win64; x64) AppleWebKit/537.36 (KHTML, like Gecko) draw.io/26.0.9 Chrome/128.0.6613.186 Electron/32.2.5 Safari/537.36" version="26.0.9">
  <diagram name="Página-1" id="KsdwhysMVNGWeAxHj5rH">
    <mxGraphModel dx="2100" dy="1242" grid="1" gridSize="10" guides="1" tooltips="1" connect="1" arrows="1" fold="1" page="1" pageScale="1" pageWidth="850" pageHeight="1100" math="0" shadow="0">
      <root>
        <mxCell id="0" />
        <mxCell id="1" parent="0" />
        <mxCell id="uS-GW3m_xwy0kOGGAMsy-20" style="edgeStyle=orthogonalEdgeStyle;rounded=0;orthogonalLoop=1;jettySize=auto;html=1;exitX=0.5;exitY=1;exitDx=0;exitDy=0;entryX=0.5;entryY=0;entryDx=0;entryDy=0;" edge="1" parent="1" source="uS-GW3m_xwy0kOGGAMsy-21" target="uS-GW3m_xwy0kOGGAMsy-22">
          <mxGeometry relative="1" as="geometry" />
        </mxCell>
        <mxCell id="uS-GW3m_xwy0kOGGAMsy-21" value="INICIO" style="ellipse;whiteSpace=wrap;html=1;aspect=fixed;" vertex="1" parent="1">
          <mxGeometry x="50" y="20" width="80" height="80" as="geometry" />
        </mxCell>
        <mxCell id="uS-GW3m_xwy0kOGGAMsy-22" value="&quot;Ingresa un número entero mayor o igual a 0&quot;" style="shape=parallelogram;perimeter=parallelogramPerimeter;whiteSpace=wrap;html=1;fixedSize=1;" vertex="1" parent="1">
          <mxGeometry x="7.5" y="130" width="165" height="90" as="geometry" />
        </mxCell>
        <mxCell id="uS-GW3m_xwy0kOGGAMsy-38" value="" style="edgeStyle=orthogonalEdgeStyle;rounded=0;orthogonalLoop=1;jettySize=auto;html=1;" edge="1" parent="1" source="uS-GW3m_xwy0kOGGAMsy-24" target="uS-GW3m_xwy0kOGGAMsy-37">
          <mxGeometry relative="1" as="geometry" />
        </mxCell>
        <mxCell id="uS-GW3m_xwy0kOGGAMsy-24" value="&lt;div&gt;Leer N&lt;/div&gt;" style="shape=parallelogram;perimeter=parallelogramPerimeter;whiteSpace=wrap;html=1;fixedSize=1;" vertex="1" parent="1">
          <mxGeometry y="250" width="160" height="90" as="geometry" />
        </mxCell>
        <mxCell id="uS-GW3m_xwy0kOGGAMsy-25" value="" style="endArrow=classic;html=1;rounded=0;" edge="1" parent="1">
          <mxGeometry width="50" height="50" relative="1" as="geometry">
            <mxPoint x="140" y="160" as="sourcePoint" />
            <mxPoint x="190" y="110" as="targetPoint" />
          </mxGeometry>
        </mxCell>
        <mxCell id="uS-GW3m_xwy0kOGGAMsy-26" value="" style="endArrow=classic;html=1;rounded=0;" edge="1" parent="1">
          <mxGeometry width="50" height="50" relative="1" as="geometry">
            <mxPoint x="190" y="220" as="sourcePoint" />
            <mxPoint x="130" y="270" as="targetPoint" />
          </mxGeometry>
        </mxCell>
        <mxCell id="uS-GW3m_xwy0kOGGAMsy-33" style="edgeStyle=orthogonalEdgeStyle;rounded=0;orthogonalLoop=1;jettySize=auto;html=1;exitX=0.5;exitY=1;exitDx=0;exitDy=0;entryX=0.552;entryY=-0.013;entryDx=0;entryDy=0;entryPerimeter=0;" edge="1" parent="1" source="uS-GW3m_xwy0kOGGAMsy-22" target="uS-GW3m_xwy0kOGGAMsy-24">
          <mxGeometry relative="1" as="geometry" />
        </mxCell>
        <mxCell id="uS-GW3m_xwy0kOGGAMsy-40" value="" style="edgeStyle=orthogonalEdgeStyle;rounded=0;orthogonalLoop=1;jettySize=auto;html=1;" edge="1" parent="1" source="uS-GW3m_xwy0kOGGAMsy-37" target="uS-GW3m_xwy0kOGGAMsy-39">
          <mxGeometry relative="1" as="geometry" />
        </mxCell>
        <mxCell id="uS-GW3m_xwy0kOGGAMsy-37" value="S = 0&lt;div&gt;i = 0&amp;nbsp;&lt;/div&gt;" style="whiteSpace=wrap;html=1;" vertex="1" parent="1">
          <mxGeometry x="20" y="380" width="120" height="60" as="geometry" />
        </mxCell>
        <mxCell id="uS-GW3m_xwy0kOGGAMsy-42" value="" style="edgeStyle=orthogonalEdgeStyle;rounded=0;orthogonalLoop=1;jettySize=auto;html=1;" edge="1" parent="1" source="uS-GW3m_xwy0kOGGAMsy-39" target="uS-GW3m_xwy0kOGGAMsy-41">
          <mxGeometry relative="1" as="geometry" />
        </mxCell>
        <mxCell id="uS-GW3m_xwy0kOGGAMsy-49" value="SI" style="edgeLabel;html=1;align=center;verticalAlign=middle;resizable=0;points=[];" vertex="1" connectable="0" parent="uS-GW3m_xwy0kOGGAMsy-42">
          <mxGeometry x="0.0792" y="2" relative="1" as="geometry">
            <mxPoint as="offset" />
          </mxGeometry>
        </mxCell>
        <mxCell id="uS-GW3m_xwy0kOGGAMsy-44" value="" style="edgeStyle=orthogonalEdgeStyle;rounded=0;orthogonalLoop=1;jettySize=auto;html=1;" edge="1" parent="1" source="uS-GW3m_xwy0kOGGAMsy-39" target="uS-GW3m_xwy0kOGGAMsy-43">
          <mxGeometry relative="1" as="geometry" />
        </mxCell>
        <mxCell id="uS-GW3m_xwy0kOGGAMsy-50" value="NO" style="edgeLabel;html=1;align=center;verticalAlign=middle;resizable=0;points=[];" vertex="1" connectable="0" parent="uS-GW3m_xwy0kOGGAMsy-44">
          <mxGeometry x="-0.0571" y="1" relative="1" as="geometry">
            <mxPoint as="offset" />
          </mxGeometry>
        </mxCell>
        <mxCell id="uS-GW3m_xwy0kOGGAMsy-39" value="N &amp;gt;= i" style="rhombus;whiteSpace=wrap;html=1;" vertex="1" parent="1">
          <mxGeometry x="12.5" y="490" width="135" height="120" as="geometry" />
        </mxCell>
        <mxCell id="uS-GW3m_xwy0kOGGAMsy-48" style="edgeStyle=orthogonalEdgeStyle;rounded=0;orthogonalLoop=1;jettySize=auto;html=1;exitX=0.5;exitY=0;exitDx=0;exitDy=0;" edge="1" parent="1" source="uS-GW3m_xwy0kOGGAMsy-41">
          <mxGeometry relative="1" as="geometry">
            <mxPoint x="85" y="460" as="targetPoint" />
            <Array as="points">
              <mxPoint x="295" y="460" />
            </Array>
          </mxGeometry>
        </mxCell>
        <mxCell id="uS-GW3m_xwy0kOGGAMsy-41" value="S = S + i&lt;div&gt;i = i + 1&lt;/div&gt;" style="whiteSpace=wrap;html=1;" vertex="1" parent="1">
          <mxGeometry x="235" y="520" width="120" height="60" as="geometry" />
        </mxCell>
        <mxCell id="uS-GW3m_xwy0kOGGAMsy-52" value="" style="edgeStyle=orthogonalEdgeStyle;rounded=0;orthogonalLoop=1;jettySize=auto;html=1;" edge="1" parent="1" source="uS-GW3m_xwy0kOGGAMsy-43" target="uS-GW3m_xwy0kOGGAMsy-51">
          <mxGeometry relative="1" as="geometry" />
        </mxCell>
        <mxCell id="uS-GW3m_xwy0kOGGAMsy-43" value="&quot;El resultado es: &quot;, S" style="shape=parallelogram;perimeter=parallelogramPerimeter;whiteSpace=wrap;html=1;fixedSize=1;" vertex="1" parent="1">
          <mxGeometry y="670" width="165" height="70" as="geometry" />
        </mxCell>
        <mxCell id="uS-GW3m_xwy0kOGGAMsy-51" value="FIN" style="ellipse;whiteSpace=wrap;html=1;" vertex="1" parent="1">
          <mxGeometry x="42.5" y="815" width="80" height="80" as="geometry" />
        </mxCell>
        <mxCell id="uS-GW3m_xwy0kOGGAMsy-53" value="" style="endArrow=classic;html=1;rounded=0;" edge="1" parent="1">
          <mxGeometry width="50" height="50" relative="1" as="geometry">
            <mxPoint x="140" y="690" as="sourcePoint" />
            <mxPoint x="190" y="640" as="targetPoint" />
          </mxGeometry>
        </mxCell>
        <mxCell id="uS-GW3m_xwy0kOGGAMsy-79" value="" style="edgeStyle=orthogonalEdgeStyle;rounded=0;orthogonalLoop=1;jettySize=auto;html=1;" edge="1" parent="1" source="uS-GW3m_xwy0kOGGAMsy-80" target="uS-GW3m_xwy0kOGGAMsy-82">
          <mxGeometry relative="1" as="geometry" />
        </mxCell>
        <mxCell id="uS-GW3m_xwy0kOGGAMsy-80" value="INICIO" style="ellipse;whiteSpace=wrap;html=1;aspect=fixed;" vertex="1" parent="1">
          <mxGeometry x="72.5" y="1030" width="80" height="80" as="geometry" />
        </mxCell>
        <mxCell id="uS-GW3m_xwy0kOGGAMsy-81" value="" style="edgeStyle=orthogonalEdgeStyle;rounded=0;orthogonalLoop=1;jettySize=auto;html=1;" edge="1" parent="1" source="uS-GW3m_xwy0kOGGAMsy-82" target="uS-GW3m_xwy0kOGGAMsy-84">
          <mxGeometry relative="1" as="geometry" />
        </mxCell>
        <mxCell id="uS-GW3m_xwy0kOGGAMsy-82" value="Positivos = 0" style="whiteSpace=wrap;html=1;" vertex="1" parent="1">
          <mxGeometry x="52.5" y="1200" width="120" height="60" as="geometry" />
        </mxCell>
        <mxCell id="uS-GW3m_xwy0kOGGAMsy-83" value="" style="edgeStyle=orthogonalEdgeStyle;rounded=0;orthogonalLoop=1;jettySize=auto;html=1;" edge="1" parent="1" source="uS-GW3m_xwy0kOGGAMsy-84" target="uS-GW3m_xwy0kOGGAMsy-87">
          <mxGeometry relative="1" as="geometry" />
        </mxCell>
        <mxCell id="uS-GW3m_xwy0kOGGAMsy-84" value="&quot;Dame un número entero&quot;" style="shape=parallelogram;perimeter=parallelogramPerimeter;whiteSpace=wrap;html=1;fixedSize=1;" vertex="1" parent="1">
          <mxGeometry x="52.5" y="1340" width="120" height="60" as="geometry" />
        </mxCell>
        <mxCell id="uS-GW3m_xwy0kOGGAMsy-85" value="" style="endArrow=classic;html=1;rounded=0;" edge="1" parent="1">
          <mxGeometry width="50" height="50" relative="1" as="geometry">
            <mxPoint x="152.5" y="1360" as="sourcePoint" />
            <mxPoint x="202.5" y="1310" as="targetPoint" />
          </mxGeometry>
        </mxCell>
        <mxCell id="uS-GW3m_xwy0kOGGAMsy-86" value="" style="edgeStyle=orthogonalEdgeStyle;rounded=0;orthogonalLoop=1;jettySize=auto;html=1;" edge="1" parent="1" source="uS-GW3m_xwy0kOGGAMsy-87" target="uS-GW3m_xwy0kOGGAMsy-92">
          <mxGeometry relative="1" as="geometry" />
        </mxCell>
        <mxCell id="uS-GW3m_xwy0kOGGAMsy-87" value="Leer N" style="shape=parallelogram;perimeter=parallelogramPerimeter;whiteSpace=wrap;html=1;fixedSize=1;" vertex="1" parent="1">
          <mxGeometry x="52.5" y="1480" width="120" height="60" as="geometry" />
        </mxCell>
        <mxCell id="uS-GW3m_xwy0kOGGAMsy-88" value="" style="endArrow=classic;html=1;rounded=0;entryX=0.75;entryY=0;entryDx=0;entryDy=0;" edge="1" parent="1">
          <mxGeometry width="50" height="50" relative="1" as="geometry">
            <mxPoint x="192.5" y="1460" as="sourcePoint" />
            <mxPoint x="142.5" y="1510" as="targetPoint" />
          </mxGeometry>
        </mxCell>
        <mxCell id="uS-GW3m_xwy0kOGGAMsy-89" value="" style="edgeStyle=orthogonalEdgeStyle;rounded=0;orthogonalLoop=1;jettySize=auto;html=1;" edge="1" parent="1" source="uS-GW3m_xwy0kOGGAMsy-92" target="uS-GW3m_xwy0kOGGAMsy-97">
          <mxGeometry relative="1" as="geometry" />
        </mxCell>
        <mxCell id="uS-GW3m_xwy0kOGGAMsy-90" value="SI" style="edgeLabel;html=1;align=center;verticalAlign=middle;resizable=0;points=[];" vertex="1" connectable="0" parent="uS-GW3m_xwy0kOGGAMsy-89">
          <mxGeometry x="0.0095" y="-1" relative="1" as="geometry">
            <mxPoint as="offset" />
          </mxGeometry>
        </mxCell>
        <mxCell id="uS-GW3m_xwy0kOGGAMsy-91" value="" style="edgeStyle=orthogonalEdgeStyle;rounded=0;orthogonalLoop=1;jettySize=auto;html=1;" edge="1" parent="1" source="uS-GW3m_xwy0kOGGAMsy-92" target="uS-GW3m_xwy0kOGGAMsy-101">
          <mxGeometry relative="1" as="geometry" />
        </mxCell>
        <mxCell id="uS-GW3m_xwy0kOGGAMsy-92" value="N != 0" style="rhombus;whiteSpace=wrap;html=1;" vertex="1" parent="1">
          <mxGeometry x="47.5" y="1590" width="130" height="120" as="geometry" />
        </mxCell>
        <mxCell id="uS-GW3m_xwy0kOGGAMsy-93" value="" style="edgeStyle=orthogonalEdgeStyle;rounded=0;orthogonalLoop=1;jettySize=auto;html=1;" edge="1" parent="1" source="uS-GW3m_xwy0kOGGAMsy-97" target="uS-GW3m_xwy0kOGGAMsy-99">
          <mxGeometry relative="1" as="geometry" />
        </mxCell>
        <mxCell id="uS-GW3m_xwy0kOGGAMsy-94" value="SI" style="edgeLabel;html=1;align=center;verticalAlign=middle;resizable=0;points=[];" vertex="1" connectable="0" parent="uS-GW3m_xwy0kOGGAMsy-93">
          <mxGeometry x="-0.2745" y="-3" relative="1" as="geometry">
            <mxPoint as="offset" />
          </mxGeometry>
        </mxCell>
        <mxCell id="uS-GW3m_xwy0kOGGAMsy-95" style="edgeStyle=orthogonalEdgeStyle;rounded=0;orthogonalLoop=1;jettySize=auto;html=1;exitX=0.5;exitY=0;exitDx=0;exitDy=0;" edge="1" parent="1" source="uS-GW3m_xwy0kOGGAMsy-97">
          <mxGeometry relative="1" as="geometry">
            <mxPoint x="122.5" y="1280" as="targetPoint" />
            <Array as="points">
              <mxPoint x="322.5" y="1280" />
            </Array>
          </mxGeometry>
        </mxCell>
        <mxCell id="uS-GW3m_xwy0kOGGAMsy-96" value="NO" style="edgeLabel;html=1;align=center;verticalAlign=middle;resizable=0;points=[];" vertex="1" connectable="0" parent="uS-GW3m_xwy0kOGGAMsy-95">
          <mxGeometry x="-0.7542" y="1" relative="1" as="geometry">
            <mxPoint as="offset" />
          </mxGeometry>
        </mxCell>
        <mxCell id="uS-GW3m_xwy0kOGGAMsy-97" value="N &amp;gt; 0" style="rhombus;whiteSpace=wrap;html=1;" vertex="1" parent="1">
          <mxGeometry x="257.5" y="1590" width="130" height="120" as="geometry" />
        </mxCell>
        <mxCell id="uS-GW3m_xwy0kOGGAMsy-98" style="edgeStyle=orthogonalEdgeStyle;rounded=0;orthogonalLoop=1;jettySize=auto;html=1;" edge="1" parent="1" source="uS-GW3m_xwy0kOGGAMsy-99">
          <mxGeometry relative="1" as="geometry">
            <mxPoint x="122.5" y="1280" as="targetPoint" />
            <Array as="points">
              <mxPoint x="542.5" y="1280" />
            </Array>
          </mxGeometry>
        </mxCell>
        <mxCell id="uS-GW3m_xwy0kOGGAMsy-99" value="Positivos = Positivos + 1" style="whiteSpace=wrap;html=1;" vertex="1" parent="1">
          <mxGeometry x="472.5" y="1620" width="140" height="60" as="geometry" />
        </mxCell>
        <mxCell id="uS-GW3m_xwy0kOGGAMsy-100" value="" style="edgeStyle=orthogonalEdgeStyle;rounded=0;orthogonalLoop=1;jettySize=auto;html=1;" edge="1" parent="1" source="uS-GW3m_xwy0kOGGAMsy-101" target="uS-GW3m_xwy0kOGGAMsy-103">
          <mxGeometry relative="1" as="geometry" />
        </mxCell>
        <mxCell id="uS-GW3m_xwy0kOGGAMsy-101" value="&quot;El total de positivos es: &quot;, Positivos" style="shape=parallelogram;perimeter=parallelogramPerimeter;whiteSpace=wrap;html=1;fixedSize=1;" vertex="1" parent="1">
          <mxGeometry x="42.5" y="1820" width="140" height="80" as="geometry" />
        </mxCell>
        <mxCell id="uS-GW3m_xwy0kOGGAMsy-102" value="" style="endArrow=classic;html=1;rounded=0;" edge="1" parent="1">
          <mxGeometry width="50" height="50" relative="1" as="geometry">
            <mxPoint x="162.5" y="1840" as="sourcePoint" />
            <mxPoint x="212.5" y="1790" as="targetPoint" />
          </mxGeometry>
        </mxCell>
        <mxCell id="uS-GW3m_xwy0kOGGAMsy-103" value="FIN" style="ellipse;whiteSpace=wrap;html=1;" vertex="1" parent="1">
          <mxGeometry x="72.5" y="1980" width="80" height="80" as="geometry" />
        </mxCell>
      </root>
    </mxGraphModel>
  </diagram>
</mxfile>
